<svg width="80" height="80" viewBox="0 0 80 80" fill="none" xmlns="http://www.w3.org/2000/svg">
<g id="Attention">
<circle id="Vector" cx="40" cy="40" r="30" fill="#BEEAFF"/>
<path id="Vector_2" d="M36.5062 27.1109C36.5021 27.037 36.4998 26.9648 36.5041 26.891C36.5391 26.2993 36.8699 23.5 40 23.5C43.1301 23.5 43.4609 26.2993 43.4959 26.891C43.5002 26.9648 43.4979 27.037 43.4938 27.1109L42.5062 44.8891C42.5021 44.963 42.5003 45.0368 42.4949 45.1106C42.4597 45.5943 42.1827 47.5 40 47.5C37.8173 47.5 37.5403 45.5943 37.5051 45.1106C37.4997 45.0368 37.4979 44.963 37.4938 44.8891L36.5062 27.1109Z" fill="#1B8CD1"/>
<circle id="Vector_3" cx="40" cy="53.5" r="3" fill="#1B8CD1"/>
</g>
</svg>
