<svg width="40" height="40" viewBox="0 0 40 40" fill="none" xmlns="http://www.w3.org/2000/svg">
<g id="Attention-circle">
<path id="Vector" fill-rule="evenodd" clip-rule="evenodd" d="M20 9C13.9249 9 9 13.9249 9 20C9 26.0751 13.9249 31 20 31C26.0751 31 31 26.0751 31 20C31 13.9249 26.0751 9 20 9ZM7 20C7 12.8203 12.8203 7 20 7C27.1797 7 33 12.8203 33 20C33 27.1797 27.1797 33 20 33C12.8203 33 7 27.1797 7 20Z" fill="#FF3D3D"/>
<path id="Vector_2" d="M21.5 26.5C21.5 27.3284 20.8284 28 20 28C19.1716 28 18.5 27.3284 18.5 26.5C18.5 25.6716 19.1716 25 20 25C20.8284 25 21.5 25.6716 21.5 26.5Z" fill="#FF3D3D"/>
<path id="Vector_3" fill-rule="evenodd" clip-rule="evenodd" d="M20 12C20.5523 12 21 12.4477 21 13V22C21 22.5523 20.5523 23 20 23C19.4477 23 19 22.5523 19 22V13C19 12.4477 19.4477 12 20 12Z" fill="#FF3D3D"/>
</g>
</svg>
