<svg width="24" height="24" viewBox="0 0 24 24" fill="none" xmlns="http://www.w3.org/2000/svg">
<g id="Content">
<path id="Vector" fill-rule="evenodd" clip-rule="evenodd" d="M5.99999 7.7998V15.5998C5.99999 16.9253 7.0745 17.9998 8.39999 17.9998H16.2L16.0975 18.2048C15.7926 18.8146 15.1693 19.1998 14.4875 19.1998H8.39999C6.41176 19.1998 4.79999 17.588 4.79999 15.5998V9.74145C4.79999 8.9192 5.26455 8.16752 5.99999 7.7998Lnan nanL5.99999 7.7998Z" fill="white"/>
<path id="Vector_2" d="M7.20001 7.1998C7.20001 5.87432 8.27453 4.7998 9.60001 4.7998H16.8C18.1255 4.7998 19.2 5.87432 19.2 7.1998V14.3998C19.2 15.7253 18.1255 16.7998 16.8 16.7998H9.60001C8.27453 16.7998 7.20001 15.7253 7.20001 14.3998V7.1998Z" fill="white"/>
</g>
</svg>
