<svg width="61" height="60" viewBox="0 0 61 60" fill="none" xmlns="http://www.w3.org/2000/svg">
<g id="Hedgehog">
<path id="Vector" d="M25.4765 47.0755H42.3368C42.3368 47.0755 41.6458 49.4785 39.4 50.68C39.4 50.68 43.3734 50.68 46.8285 50.68M17.0115 31.2841C17.0115 31.2841 21.5031 26.0918 24.0944 27.5078C26.6858 28.9239 22.3669 33.6871 22.3669 33.6871C38.14 41.68 58.3 36.64 58.3 36.64L52.7718 32.8289L58.3 27.3362L49.3 26.92L51.46 18.239L42.5793 22.06V12.403L34.54 19L33.0777 10L26.6858 18.239L22.8851 10C21.4 19.2689 14.0746 32.4856 2.5 39.1798C5.11878 47.1715 11.8088 47.9635 19.2573 47.0755C19.2573 47.0755 18.739 49.1352 16.4932 50.68C16.4932 50.68 20.4666 50.68 24.0944 50.68M13.3836 35.9185C13.3836 35.9185 12.8653 36.9484 12.6926 38.3215M49.3 46.6034C49.3 46.6034 51.46 42.58 52.223 37.8494" stroke="#257FDC" stroke-width="2" stroke-linecap="round" stroke-linejoin="round"/>
</g>
</svg>
