<svg width="80" height="80" viewBox="0 0 80 80" fill="none" xmlns="http://www.w3.org/2000/svg">
<g id="Info">
<g id="Subtract">
<path fill-rule="evenodd" clip-rule="evenodd" d="M70 40C70 56.5685 56.5685 70 40 70C23.4315 70 10 56.5685 10 40C10 23.4315 23.4315 10 40 10C56.5685 10 70 23.4315 70 40ZM43 26.5C43 28.1569 41.6569 29.5 40 29.5C38.3431 29.5 37 28.1569 37 26.5C37 24.8431 38.3431 23.5 40 23.5C41.6569 23.5 43 24.8431 43 26.5ZM40 32.5C37.5 32.5 37.5 35 37.5 35V54C37.5 54 37.5 56.5 40 56.5C42.5 56.5 42.5 54 42.5 54V35C42.5 35 42.5 32.5 40 32.5Z" fill="white"/>
<path fill-rule="evenodd" clip-rule="evenodd" d="M70 40C70 56.5685 56.5685 70 40 70C23.4315 70 10 56.5685 10 40C10 23.4315 23.4315 10 40 10C56.5685 10 70 23.4315 70 40ZM43 26.5C43 28.1569 41.6569 29.5 40 29.5C38.3431 29.5 37 28.1569 37 26.5C37 24.8431 38.3431 23.5 40 23.5C41.6569 23.5 43 24.8431 43 26.5ZM40 32.5C37.5 32.5 37.5 35 37.5 35V54C37.5 54 37.5 56.5 40 56.5C42.5 56.5 42.5 54 42.5 54V35C42.5 35 42.5 32.5 40 32.5Z" fill="url(#paint0_linear_308_3715)"/>
</g>
</g>
<defs>
<linearGradient id="paint0_linear_308_3715" x1="40" y1="10" x2="40" y2="70" gradientUnits="userSpaceOnUse">
<stop stop-color="#FFA800"/>
<stop offset="1" stop-color="#FFA800"/>
</linearGradient>
</defs>
</svg>
