<svg width="61" height="60" viewBox="0 0 61 60" fill="none" xmlns="http://www.w3.org/2000/svg">
<g id="Turtle">
<ellipse id="Vector" cx="30" cy="32.84" rx="13.5" ry="15.84" stroke="#257FDC" stroke-width="2"/>
<path id="Vector_2" d="M45.4521 25.7C55.8922 26.96 57.3322 26.24 57.3321 24.62C57.6921 21.56 49.9521 15.26 46.5321 14.72C43.1121 14.18 41.1321 18.14 41.1321 18.14M21.8721 32.7201L25.2922 29.3M25.2922 29.3L30.3322 34.34M25.2922 29.3L25.2922 25.7M30.3322 34.34L35.3722 29.3M30.3322 34.34V37.94M35.3722 29.3L38.7923 32.7201M35.3722 29.3L35.3722 25.7M27.0921 41.1801L30.3322 37.94M30.3322 37.94L33.5723 41.1801M15.7521 41.36C15.7521 41.36 11.2521 45.86 11.2521 48.74C11.2521 51.62 14.3122 54.86 17.5522 54.86C20.4321 54.86 21.6921 49.82 21.6921 49.82M24.7521 15.08C24.0321 8.96 27.0921 5 30.3322 5C33.5722 5 36.6322 8.96 35.9122 15.08M19.7121 18.14C19.7121 18.14 17.7321 14.18 14.3122 14.72C10.8922 15.26 3.15214 21.56 3.51214 24.62C3.51209 26.24 4.95209 26.96 15.3921 25.7M45.0921 41.36C45.0921 41.36 49.5921 45.86 49.5921 48.74C49.5921 51.62 46.5321 54.86 43.2921 54.86C40.4122 54.86 39.1521 49.82 39.1521 49.82" stroke="#257FDC" stroke-width="2" stroke-linecap="round" stroke-linejoin="round"/>
</g>
</svg>
