<svg width="80" height="80" viewBox="0 0 80 80" fill="none" xmlns="http://www.w3.org/2000/svg">
<g id="Attention">
<path id="Subtract" fill-rule="evenodd" clip-rule="evenodd" d="M67.1358 69.9999H12.8643C9.79936 69.9999 7.87314 66.6944 9.38417 64.0279L36.5199 16.1412C38.0522 13.4373 41.9479 13.4373 43.4801 16.1412L70.6159 64.0279C72.1269 66.6944 70.2007 69.9999 67.1358 69.9999ZM36.5061 33.1107C36.502 33.0368 36.4997 32.9647 36.5041 32.8909C36.539 32.2991 36.8699 29.4999 39.9999 29.4999C43.13 29.4999 43.4608 32.2991 43.4958 32.8909C43.5002 32.9647 43.4979 33.0368 43.4938 33.1107L42.5061 50.889C42.5052 50.9053 42.5044 50.9216 42.5037 50.9378C42.5031 50.9505 42.5025 50.9632 42.502 50.9759C42.5 51.0208 42.4981 51.0656 42.4948 51.1105C42.4597 51.5942 42.1827 53.4999 39.9999 53.4999C37.8172 53.4999 37.5402 51.5942 37.505 51.1105C37.5018 51.0656 37.4998 51.0208 37.4979 50.976L37.4979 50.9759L37.4979 50.9758C37.4966 50.9469 37.4954 50.918 37.4938 50.889L36.5061 33.1107ZM39.9999 62.4999C41.6568 62.4999 42.9999 61.1567 42.9999 59.4999C42.9999 57.843 41.6568 56.4999 39.9999 56.4999C38.3431 56.4999 36.9999 57.843 36.9999 59.4999C36.9999 61.1567 38.3431 62.4999 39.9999 62.4999Z" fill="#FF3D3D"/>
</g>
</svg>
