<svg width="120" height="120" viewBox="0 0 120 120" fill="none" xmlns="http://www.w3.org/2000/svg">
<path d="M96 76.2C96 76.2 105 81.3 106.5 92.4M96.6 73.8C96.6 73.8 103.8 76.1998 108.3 76.1999" stroke="#37A238" stroke-width="2.5" stroke-linecap="round" stroke-linejoin="round"/>
<path d="M60.0001 43.4999C57.1201 29.5799 41.4 18.3 28.8 19.5C30 31.5 32.1 43.5 46.8 54.9C46.8 54.9 46.8 61.2 43.2 61.8115C39.6 62.423 33.3 56.1 18.3 59.7M70.8 82.2C70.8 82.2 93.9001 88.2 97.2001 72C91.8001 57.8999 93.9001 46.4999 67.5001 41.3999C66.3001 27.3 54.0001 12.6 41.4 13.8M80.1001 84.9001C80.1001 84.9001 79.6201 95.0401 69.3001 99.6001M72.6001 57.9001L74.4001 58.5001" stroke="#1B8CD1" stroke-width="2.5" stroke-linecap="round" stroke-linejoin="round"/>
<path d="M86.9999 77.1C86.9999 77.1 71.0999 76.2 45.8999 104.1M82.1999 74.3999C82.1999 74.3999 68.6999 80.9999 62.3999 96" stroke="#37A238" stroke-width="2.5" stroke-linecap="round" stroke-linejoin="round"/>
<path d="M87.3 19.5L93.9 26.1L111 9" stroke="#37A238" stroke-width="2" stroke-linecap="round" stroke-linejoin="round"/>
<path d="M100.713 12.4074C98.6486 10.6749 96.0606 9.68789 93.3665 9.60557C90.6723 9.52326 88.0289 10.3504 85.8621 11.9537C83.6954 13.557 82.1315 15.8431 81.4226 18.4436C80.7136 21.0441 80.9008 23.8076 81.9539 26.2887C83.0071 28.7699 84.865 30.8242 87.2281 32.1207C89.5913 33.4172 92.3221 33.8803 94.9806 33.4354C97.639 32.9905 100.07 31.6636 101.883 29.6684C103.695 27.6732 104.783 25.1259 104.971 22.4371" stroke="#37A238" stroke-width="2" stroke-linecap="round"/>
</svg>
