<svg width="101" height="100" viewBox="0 0 101 100" fill="none" xmlns="http://www.w3.org/2000/svg">
<g id="Operating room - 1">
<rect id="Vector" x="8.75" y="16" width="83.5" height="54" rx="5" fill="url(#paint0_linear_705_1150)"/>
<g id="Vector_2">
<path d="M27.75 73.5V72.5H19.75V73.5C19.75 75.7091 21.5409 77.5 23.75 77.5C25.9591 77.5 27.75 75.7091 27.75 73.5Z" fill="url(#paint1_linear_705_1150)"/>
<path d="M80.5 73.5V72.5H72.5V73.5C72.5 75.7091 74.2909 77.5 76.5 77.5C78.7091 77.5 80.5 75.7091 80.5 73.5Z" fill="url(#paint2_linear_705_1150)"/>
</g>
<rect id="Vector_3" x="17.25" y="22" width="66.5" height="36.5" rx="2" fill="url(#paint3_linear_705_1150)"/>
<path id="Vector_4" d="M21.75 41.75L30.3786 37.6318C31.736 36.984 33.3633 37.4414 34.1844 38.7016L40.1441 47.8491C41.5082 49.9428 44.6842 49.5488 45.4953 47.1851L49.4002 35.805C50.3286 33.0995 54.1567 33.1046 55.078 35.8125L58.549 46.0154C59.3486 48.3657 62.4941 48.7831 63.879 46.7227L69.0445 39.0375C69.9811 37.6439 71.8791 37.2904 73.2547 38.2533L78.25 41.75" stroke="url(#paint4_linear_705_1150)" stroke-width="2" stroke-linecap="square"/>
</g>
<defs>
<linearGradient id="paint0_linear_705_1150" x1="92.25" y1="16" x2="8.1866" y2="69.1082" gradientUnits="userSpaceOnUse">
<stop stop-color="#657080"/>
<stop offset="1" stop-color="#B9BFC7"/>
</linearGradient>
<linearGradient id="paint1_linear_705_1150" x1="80.5" y1="72.5" x2="77.1629" y2="89.0657" gradientUnits="userSpaceOnUse">
<stop stop-color="#657080"/>
<stop offset="1" stop-color="#B9BFC7"/>
</linearGradient>
<linearGradient id="paint2_linear_705_1150" x1="80.5" y1="72.5" x2="77.1629" y2="89.0657" gradientUnits="userSpaceOnUse">
<stop stop-color="#657080"/>
<stop offset="1" stop-color="#B9BFC7"/>
</linearGradient>
<linearGradient id="paint3_linear_705_1150" x1="83.75" y1="22" x2="78.8222" y2="65.4785" gradientUnits="userSpaceOnUse">
<stop stop-color="#039900"/>
<stop offset="1" stop-color="#A0FF9E" stop-opacity="0.5"/>
</linearGradient>
<linearGradient id="paint4_linear_705_1150" x1="81.75" y1="27.75" x2="19.25" y2="53.25" gradientUnits="userSpaceOnUse">
<stop stop-color="white"/>
<stop offset="1" stop-color="white" stop-opacity="0"/>
</linearGradient>
</defs>
</svg>
