<svg width="61" height="60" viewBox="0 0 61 60" fill="none" xmlns="http://www.w3.org/2000/svg">
<g id="Medical department">
<path id="Vector" d="M44.9167 51V13.25C44.9167 12.1454 44.0213 11.25 42.9167 11.25H17.6667C16.5622 11.25 15.6667 12.1454 15.6667 13.25V46.3684" stroke="#3B5060" stroke-width="2" stroke-linecap="round"/>
<path id="Vector_2" d="M5.91675 54.75V9.03124C5.91675 8.30952 6.65796 7.82546 7.31879 8.11562L15.8031 11.841M54.6667 54.75V9.03124C54.6667 8.30952 53.9255 7.82546 53.2647 8.11562L44.7804 11.841" stroke="#3B5060" stroke-width="2" stroke-linecap="round" stroke-linejoin="round"/>
<path id="Vector_3" d="M3.66675 54.75H19.1917M24.4417 54.75H57.6667" stroke="#3B5060" stroke-width="2" stroke-linecap="round" stroke-linejoin="round"/>
<path id="Vector_4" d="M45.6667 35.8501H36.6665C35.6723 35.8501 34.8665 36.656 34.8665 37.6501V37.6501C34.8665 38.6442 35.6723 39.4501 36.6665 39.4501H45.6667" stroke="#3B5060" stroke-width="2"/>
<path id="Vector_5" d="M37.7917 39.75V51" stroke="#3B5060" stroke-width="2" stroke-linecap="round" stroke-linejoin="round"/>
<rect id="Vector_6" x="23.4663" y="3" width="12.9" height="3.9" rx="1.95" stroke="#FF3D3D" stroke-width="2"/>
<path id="Vector 19" d="M20.7667 6.1498L18.6667 6.7498M18.6667 3.2998L20.7667 3.8998" stroke="#FF3D3D" stroke-width="2" stroke-linecap="round" stroke-linejoin="round"/>
<path id="Vector 20" d="M39.0667 6.1498L41.1667 6.7498M41.1667 3.2998L39.0667 3.8998" stroke="#FF3D3D" stroke-width="2" stroke-linecap="round" stroke-linejoin="round"/>
</g>
</svg>
