<svg width="60" height="60" viewBox="0 0 60 60" fill="none" xmlns="http://www.w3.org/2000/svg">
<g id="Without stress">
<path id="Vector 18" d="M37.4999 28.05C36.5999 23.4 31.7999 24.45 28.7999 24.75C26.3999 24.99 25.1999 21.7 24.8999 20.25C24.8999 20.25 21.8999 23.55 23.6999 28.95M37.4999 28.05C39.7255 28.9155 40.6261 30.2906 40.3699 32.7632C40.2898 33.5364 39.1599 34.0834 38.3839 34.0393C37.1141 33.9672 35.6408 33.9568 35.2499 32.1M37.4999 28.05C33.4499 31.8 39.4499 32.25 39.7499 33.9M24.2999 32.85C19.1999 31.5 20.5499 25.8 20.5499 25.8C20.5499 25.8 21.5999 27.03 22.7999 27.75M22.4999 32.85C22.4999 32.85 21.5999 38.1 12.8999 38.55M29.3999 35.7C34.1999 36.3 35.8499 34.2 35.8499 34.2M33.1499 28.65C33.1499 28.65 33.1499 28.05 32.6999 27.45M34.1999 37.5C34.1999 37.5 34.1999 44.1 32.2499 47.25" stroke="#3B5060" stroke-width="2" stroke-linecap="round" stroke-linejoin="round"/>
<path id="Vector 16" d="M2.71682 9.62641C5.4653 6.41694 8.64817 4.86121 11.7883 4.5M39.5817 52.5C44.766 50.3359 49.3664 47.6959 53.2578 44.778M5.63255 13.0958C-3.86966 24.1918 7.44437 42.3072 29.6125 51.7153C29.8584 51.8197 30.1416 51.8197 30.3875 51.7153C52.5556 42.3072 63.8697 24.1918 54.3675 13.0958C44.81 1.93534 30 10.7719 30 20.296C30 10.7719 15.19 1.93535 5.63255 13.0958Z" stroke="#FF3D3D" stroke-width="2" stroke-linecap="round" stroke-linejoin="round"/>
</g>
</svg>
