<svg width="81" height="80" viewBox="0 0 81 80" fill="none" xmlns="http://www.w3.org/2000/svg">
<g id="Survey">
<path id="Vector" d="M48.6383 8H20.6667C19.5622 8 18.6667 8.89543 18.6667 10V69.4C18.6667 70.5046 19.5622 71.4 20.6667 71.4H61.0667C62.1713 71.4 63.0667 70.5046 63.0667 69.4V22.4284C63.0667 21.898 62.856 21.3893 62.481 21.0142L50.0525 8.58579C49.6775 8.21071 49.1688 8 48.6383 8Z" stroke="#1B8CD1" stroke-width="2" stroke-linecap="round"/>
<path id="Vector_2" d="M47.4666 11.6V21.6C47.4666 22.7045 48.362 23.6 49.4666 23.6H59.4666" stroke="#1B8CD1" stroke-width="2" stroke-linecap="round" stroke-linejoin="round"/>
<path id="Vector_3" d="M25.6667 37.8L27.5596 39.6929C27.9502 40.0834 28.5833 40.0834 28.9739 39.6929L33.6667 35M38.2667 37.8H55.4667M25.6667 49.2L27.5596 51.0929C27.9502 51.4834 28.5833 51.4834 28.9739 51.0929L33.6667 46.4M38.2667 49.2H55.4667" stroke="#37A238" stroke-width="2" stroke-linecap="round" stroke-linejoin="round"/>
</g>
</svg>
