<svg width="40" height="40" viewBox="0 0 40 40" fill="none" xmlns="http://www.w3.org/2000/svg">
<g id=" Question">
<path id="Vector" fill-rule="evenodd" clip-rule="evenodd" d="M20 9C13.9249 9 9 13.9249 9 20C9 26.0751 13.9249 31 20 31C26.0751 31 31 26.0751 31 20C31 13.9249 26.0751 9 20 9ZM7 20C7 12.8203 12.8203 7 20 7C27.1797 7 33 12.8203 33 20C33 27.1797 27.1797 33 20 33C12.8203 33 7 27.1797 7 20Z" fill="#1B8CD1"/>
<path id="Vector_2" d="M21.5 26.5C21.5 27.3284 20.8284 28 20 28C19.1716 28 18.5 27.3284 18.5 26.5C18.5 25.6716 19.1716 25 20 25C20.8284 25 21.5 25.6716 21.5 26.5Z" fill="#1B8CD1"/>
<path id="Vector_3" fill-rule="evenodd" clip-rule="evenodd" d="M20 14C18.3431 14 17 15.3432 17 17C17 17.5523 16.5523 18 16 18C15.4477 18 15 17.5523 15 17C15 14.2386 17.2386 12 20 12C22.7614 12 25 14.2386 25 17C25 18.5738 24.259 20.0558 23 21L20.6 22.8C20.1582 23.1314 19.5314 23.0419 19.2 22.6C18.8686 22.1582 18.9582 21.5314 19.4 21.2L21.8 19.4C22.5554 18.8335 23 17.9443 23 17C23 15.3432 21.6569 14 20 14Z" fill="#1B8CD1"/>
</g>
</svg>
