<svg width="61" height="60" viewBox="0 0 61 60" fill="none" xmlns="http://www.w3.org/2000/svg">
<g id="Squirrel ">
<path id="Vector" d="M30.206 15.5763C26.6059 0.661405 6.33677 3.24738 9.92353 22.784C11.2561 30.0422 21.9259 16.3214 21.9259 16.3214C21.9259 16.3214 24.8371 19.4204 19.0459 31.0814C10.8368 47.6113 15.7758 53.9414 25.5922 53.9414H49.567C49.567 51.2859 48.2455 48.8201 45.2251 49.3892C42.2046 49.9582 37.674 51.2859 36.5413 49.3892C43.5261 44.8369 43.3036 29.9971 24.8371 34.9738M43.3373 18.0926C43.3373 18.0926 43.9036 18.6617 44.2812 19.4204M35.966 28.2014C37.586 31.9814 43.7148 32.1287 46.169 35.5428C48.8117 31.1297 45.8055 30.3679 43.5261 30.0422C37.8626 29.233 38.6179 23.7829 38.6179 23.7829C38.6179 23.7829 47.4904 27.9558 51.266 23.2139C49.9445 19.7997 50.6996 15.8165 42.2046 11.454C42.2046 8.7985 40.5056 6.90174 40.5056 6.90174C40.5056 6.90174 37.2964 7.85012 38.2403 11.454C33.5209 14.6785 33.086 23.2139 27.146 26.4014" stroke="#257FDC" stroke-width="2" stroke-linecap="round" stroke-linejoin="round"/>
</g>
</svg>
