<svg width="101" height="100" viewBox="0 0 101 100" fill="none" xmlns="http://www.w3.org/2000/svg">
<g id="Operating room - 2">
<path id="Vector" d="M30 6C30 33.25 15 38.5 4.75 38.5C15 38.5 30 43.75 30 71C30 43.75 45 38.5 55.25 38.5C45 38.5 30 33.25 30 6Z" fill="url(#paint0_linear_705_326)"/>
<path id="Vector_2" d="M61.75 46.5C61.75 67.0423 50.4629 71 42.75 71C50.4629 71 61.75 74.9577 61.75 95.5C61.75 74.9577 73.0371 71 80.75 71C73.0371 71 61.75 67.0423 61.75 46.5Z" fill="url(#paint1_linear_705_326)"/>
<path id="Vector_3" d="M74.25 4C74.25 24.5423 62.9629 28.5 55.25 28.5C62.9629 28.5 74.25 32.4577 74.25 53C74.25 32.4577 85.5371 28.5 93.25 28.5C85.5371 28.5 74.25 24.5423 74.25 4Z" fill="url(#paint2_linear_705_326)"/>
</g>
<defs>
<linearGradient id="paint0_linear_705_326" x1="55.25" y1="6.25" x2="4.75" y2="71.25" gradientUnits="userSpaceOnUse">
<stop stop-color="#3183FF"/>
<stop offset="1" stop-color="#CCE0FF"/>
</linearGradient>
<linearGradient id="paint1_linear_705_326" x1="80.75" y1="46.6885" x2="42.6637" y2="95.6213" gradientUnits="userSpaceOnUse">
<stop stop-color="#3183FF"/>
<stop offset="1" stop-color="#CCE0FF"/>
</linearGradient>
<linearGradient id="paint2_linear_705_326" x1="93.25" y1="4.18846" x2="55.1637" y2="53.1213" gradientUnits="userSpaceOnUse">
<stop stop-color="#3183FF"/>
<stop offset="1" stop-color="#CCE0FF"/>
</linearGradient>
</defs>
</svg>
