<svg width="40" height="41" viewBox="0 0 40 41" fill="none" xmlns="http://www.w3.org/2000/svg">
<g id="Information">
<path id="Vector" fill-rule="evenodd" clip-rule="evenodd" d="M20 9.5C13.9249 9.5 9 14.4249 9 20.5C9 26.5751 13.9249 31.5 20 31.5C26.0751 31.5 31 26.5751 31 20.5C31 14.4249 26.0751 9.5 20 9.5ZM7 20.5C7 13.3203 12.8203 7.5 20 7.5C27.1797 7.5 33 13.3203 33 20.5C33 27.6797 27.1797 33.5 20 33.5C12.8203 33.5 7 27.6797 7 20.5Z" fill="#37A238"/>
<path id="Vector_2" d="M21.5 14C21.5 14.8284 20.8284 15.5 20 15.5C19.1716 15.5 18.5 14.8284 18.5 14C18.5 13.1716 19.1716 12.5 20 12.5C20.8284 12.5 21.5 13.1716 21.5 14Z" fill="#37A238"/>
<path id="Vector_3" fill-rule="evenodd" clip-rule="evenodd" d="M20 17.5C20.5523 17.5 21 17.9477 21 18.5V27.5C21 28.0523 20.5523 28.5 20 28.5C19.4477 28.5 19 28.0523 19 27.5V18.5C19 17.9477 19.4477 17.5 20 17.5Z" fill="#37A238"/>
</g>
</svg>
