<svg width="120" height="120" viewBox="0 0 120 120" fill="none" xmlns="http://www.w3.org/2000/svg">
<circle cx="60" cy="60" r="36" stroke="#FF3D3D" stroke-width="2.5"/>
<mask id="mask0_2202_440" style="mask-type:alpha" maskUnits="userSpaceOnUse" x="8" y="13" width="87" height="82">
<path d="M60 94.5C79.0538 94.5 94.5 79.0538 94.5 60C94.5 40.9462 79.0538 25.5 60 25.5V13.5H8.69995V60H25.5C25.5 79.0538 40.9461 94.5 60 94.5Z" fill="#D9D9D9"/>
</mask>
<g mask="url(#mask0_2202_440)">
<path d="M43.7999 86.1L45.5999 86.7M76.1998 95.0998C76.1998 95.0998 59.3999 59.6999 12.5999 40.4999M77.0998 83.0999C77.0998 83.0999 60.2999 47.6999 13.4999 28.4999M80.9998 75C80.9998 75 64.1999 39.6001 17.3999 20.4001M92.3998 72C92.3998 72 75.5998 36.6 28.7999 17.4M89.6998 92.9999C89.6998 92.9999 72.8998 57.5999 26.0999 38.3999M104.7 84.9C104.7 84.9 87.8998 49.5 41.0999 30.3M47.6999 89.1001L49.4999 89.7001M52.1999 85.5L50.3999 86.1M57.8999 85.8001L56.0999 86.4001M52.7999 87.9001L54.5999 88.5001" stroke="#37A238" stroke-width="2.5" stroke-linecap="round" stroke-linejoin="round"/>
</g>
<path d="M34.8 85.2001L85.2001 34.8" stroke="#FF3D3D" stroke-width="2.5" stroke-linecap="round" stroke-linejoin="round"/>
</svg>
