<svg width="61" height="60" viewBox="0 0 61 60" fill="none" xmlns="http://www.w3.org/2000/svg">
<g id="Rabbit">
<path id="Vector" d="M21.2562 32.839C34.9362 29.959 32.8079 37.3389 28.9962 43.8189C27.1962 46.8789 27.3762 47.8239 33.4962 47.0589C40.6962 46.1589 36.1962 51.379 36.1962 51.379H22.8762C16.5762 50.9768 13.3361 47.959 13.3361 47.959C13.3361 47.959 5.46097 49.5789 4.51619 42.0189C4.24625 39.8589 7.39617 39.8589 10.6362 41.8389C9.1962 36.6189 9.91618 20.7075 27.3762 23.4789C33.046 24.3789 36.7362 28.8789 37.6362 23.4789C28.6362 17.1789 26.9562 8.89893 27.7362 8.17893C28.5162 7.45893 39.9762 8.53894 42.8562 18.439C52.5762 18.9789 55.0962 25.2789 55.9962 27.619C53.4762 34.2789 45.5562 31.5789 45.5562 31.5789C46.9961 39.679 45.1962 42.0189 45.0162 45.2589C44.8362 48.4989 49.1562 48.4989 49.1562 51.379H45.3762C40.8762 51.379 40.6962 47.0589 40.6962 47.0589M46.9962 23.8389C46.9962 23.8389 47.5362 24.1989 47.8962 24.7389" stroke="#257FDC" stroke-width="2" stroke-linecap="round" stroke-linejoin="round"/>
</g>
</svg>
