<svg width="61" height="60" viewBox="0 0 61 60" fill="none" xmlns="http://www.w3.org/2000/svg">
<g id="Monkey">
<path id="Vector" d="M25.062 40.7013C25.062 40.7013 23.8533 45.6767 21.1978 46.7026C18.5423 47.7285 2.70232 51.3285 2.70232 51.3285C2.70232 51.3285 1.86346 48.6271 3.60232 47.5485C7.65966 45.0319 18.6861 43.4115 20.425 34.5064M20.425 34.5064C17.9133 34.3805 17.7974 31.7961 17.5269 30.441C17.2564 29.0858 14.0492 25.4076 21.1978 25.4076C28.3465 25.4076 24.0959 29.473 24.0959 30.8282C24.0959 32.1833 24.2891 34.7 20.425 34.5064ZM16.9473 26.182C16.3677 23.9879 15.5948 20.9551 22.1639 17.664C24.4822 16.5025 26.6076 19.2127 27.1872 21.5358C28.5396 19.9871 29.5057 19.2127 30.6649 19.2127C33.1766 19.2127 32.597 29.0858 29.1193 29.0858M32.597 23.4717C39.166 19.9871 41.8709 22.891 46.1214 24.4397C50.372 25.9884 52.2022 22.1685 49.8622 19.4685C47.5222 16.7685 43.0223 16.0485 40.132 14.7601C37.2418 13.4717 32.6811 9.62136 36.0022 5.78853C39.3234 1.9557 45.735 4.69342 49.5991 10.114M36.6543 55.027C40.5185 55.027 41.2913 55.3755 42.0641 52.8975C42.8369 50.4195 43.2233 42.4436 43.2233 42.4436C46.7187 41.0239 53.4669 36.6359 52.4973 30.441M48.6331 39.7333C50.372 46.7026 55.0823 46.8285 56.8822 47.7285C56.8822 47.7285 59.0422 48.4485 57.6022 56.0085C57.6022 56.0085 54.7222 55.2885 53.6423 51.1485C53.6423 51.1485 48.0535 51.3488 45.735 46.7026M32.9834 31.9897C35.1087 34.3773 39.2433 39.6946 38.7796 41.8628C38.2 44.5731 34.3823 51.2775 32.0422 52.8975C29.7022 54.5175 27.1083 54.9358 24.4822 54.3885C24.3022 52.5885 25.062 50.6799 27.5423 50.2485C29.3938 49.9265 31.0513 47.0898 32.597 42.4436C32.597 42.4436 31.631 39.1526 27.1872 37.6038" stroke="#257FDC" stroke-width="2" stroke-linecap="round" stroke-linejoin="round"/>
</g>
</svg>
