<svg width="32" height="32" viewBox="0 0 32 32" fill="none" xmlns="http://www.w3.org/2000/svg">
<g id="Attention-circle-filled">
<path id="Subtract" fill-rule="evenodd" clip-rule="evenodd" d="M25.6 15.9999C25.6 21.3018 21.3019 25.5999 16 25.5999C10.6981 25.5999 6.39999 21.3018 6.39999 15.9999C6.39999 10.698 10.6981 6.3999 16 6.3999C21.3019 6.3999 25.6 10.698 25.6 15.9999ZM17.2 21.1999C17.2 21.8626 16.6627 22.3999 16 22.3999C15.3373 22.3999 14.8 21.8626 14.8 21.1999C14.8 20.5372 15.3373 19.9999 16 19.9999C16.6627 19.9999 17.2 20.5372 17.2 21.1999ZM16.8 10.3999C16.8 9.95807 16.4418 9.5999 16 9.5999C15.5582 9.5999 15.2 9.95807 15.2 10.3999V17.5999C15.2 18.0417 15.5582 18.3999 16 18.3999C16.4418 18.3999 16.8 18.0417 16.8 17.5999V10.3999Z" fill="white"/>
</g>
</svg>
