<svg width="61" height="60" viewBox="0 0 61 60" fill="none" xmlns="http://www.w3.org/2000/svg">
<g id="Lizard">
<path id="Vector" d="M11.9198 28.46C19.8398 34.4 19.1199 21.98 23.6199 28.46C21.8919 17.948 29.4998 15.32 33.5198 15.32C32.2598 14.54 29.7758 12.656 29.9198 11.36C30.0998 9.74 34.7798 8.48 34.7798 6.86C34.7798 5.564 32.7998 5.06 32.6198 2.72M15.8798 37.64C15.8798 37.64 14.4398 35.48 16.9598 34.4C19.4798 33.32 20.7399 30.26 20.7399 30.26C20.7399 30.26 22.1799 32.24 23.9799 33.86C25.7799 35.48 22.5401 54.92 12.82 52.76C9.37777 51.9951 8.85993 48.44 10.1199 46.28M8.5 54.2C13.9 61.04 30.0639 56.036 30.6399 38.9C33.1598 39.62 34.9598 38.54 34.9598 38.54C34.9598 38.54 34.9598 41.24 35.6798 43.04C35.6798 43.04 35.4998 45.2 33.8798 47M11.0198 33.86C11.0198 33.86 13.7198 33.86 15.6998 32.78M42.5198 43.94C41.1998 43.64 38.4518 43.292 38.0198 42.14C37.4798 40.7 38.7398 38.36 38.3798 36.56C38.1241 35.2814 33.6398 35.54 31.3598 35.84C30.8798 32.48 31.1798 25.004 36.2198 21.98C35.6798 24.68 34.9598 27.02 36.2198 28.1C37.4798 29.18 40.8998 27.92 42.5198 29.54C43.0958 30.116 42.6998 32.24 43.5998 33.86M39.2798 48.08C39.2798 48.08 37.6598 47 37.4798 44.12M44.8598 28.46C46.6598 28.46 48.6398 30.8 48.6398 30.8M47.9198 24.32C47.9198 24.32 46.1198 26.12 44.3198 26.12C42.5198 26.12 41.2598 24.464 39.8198 25.04C38.0198 25.76 41.4398 21.8 40.1798 20.18C42.5198 18.56 45.0398 19.82 47.1998 19.28C49.3598 18.74 53.4999 15.32 52.9599 12.44C52.4199 9.56001 46.2998 9.56001 44.6798 10.1C43.0598 10.64 41.0798 14.24 38.0198 14.6C38.0198 14.6 36.2198 12.44 33.8798 11.36C34.8398 10.64 36.1429 8.37056 37.1198 7.76C38.5598 6.86 40.1798 7.76 41.7998 6.86M36.5798 5.78C38.0198 4.52 38.0198 2 38.0198 2" stroke="#257FDC" stroke-width="2" stroke-linecap="round" stroke-linejoin="round"/>
</g>
</svg>
