<svg width="80" height="80" viewBox="0 0 80 80" fill="none" xmlns="http://www.w3.org/2000/svg">
<g id="Inspection">
<path id="Vector" d="M39.4725 21.1999C39.4725 21.1999 42.1273 19.1999 45.7273 19.1999C49.3273 19.1999 51.9821 21.1999 51.9821 21.1999M42.1273 39.5999C42.1273 39.5999 35.2003 40.5999 33.4726 35.5999C31.8798 30.99 35.6042 27.9101 37.0217 24.3227C37.2207 23.819 36.9078 23.287 36.4124 23.0682C32.1005 21.1636 33.882 16.3999 36.2725 16.3999C37.3273 16.3999 40.8725 19.7999 40.8725 19.7999M42.1273 33.9999C42.1273 33.9999 45.7273 34.3999 45.7273 30.7999C45.7273 34.4968 49.3273 33.9999 49.3273 33.9999M50.5821 27.9999C50.5821 27.9999 50.5821 28.5999 50.1273 29.1999M50.5821 19.7999C50.5821 19.7999 54.1273 16.3999 55.1821 16.3999C57.5726 16.3999 59.3541 21.1636 55.0422 23.0682C54.5468 23.287 54.2339 23.819 54.4329 24.3227C55.8505 27.9101 59.5748 30.99 57.982 35.5999C56.2543 40.5999 49.3273 39.5999 49.3273 39.5999M33.4728 39.9999C30.4002 43.5999 29.8 48.9999 32.6001 50.7999C35.4002 52.5999 38.1458 50.3999 40.6001 47.3999C43.0545 44.3999 44.4002 45.9999 44.4002 44.5999C44.4002 43.1999 43.0001 41.9999 40.6001 43.1999M40.8725 28.1999C40.8725 28.1999 40.8725 28.7999 41.3273 29.3999M51.0001 43.1999C48.6001 41.9999 47.2001 43.1999 47.2001 44.5999C47.2001 45.9999 48.5458 44.3999 51.0001 47.3999C53.4545 50.3999 56.2 52.5999 59.0001 50.7999C61.8002 48.9999 61.2001 43.5999 58.1275 39.9999" stroke="#039900" stroke-width="2" stroke-linecap="round" stroke-linejoin="round"/>
<circle id="Vector_2" cx="46" cy="34" r="28" stroke="#257FDC" stroke-width="2"/>
<path id="Vector_3" d="M24.8 60.0002L12.2142 72.586C11.4332 73.367 10.1668 73.367 9.38579 72.586L7.41421 70.6144C6.63317 69.8334 6.63317 68.567 7.41421 67.786L20 55.2002" stroke="#257FDC" stroke-width="2" stroke-linecap="round" stroke-linejoin="round"/>
</g>
</svg>
