<svg width="40" height="40" viewBox="0 0 40 40" fill="none" xmlns="http://www.w3.org/2000/svg">
<g id="Protect">
<path id="Subtract" fill-rule="evenodd" clip-rule="evenodd" d="M20 34C20 34 6 29 6 12L20 6L34 12C34 29 20 34 20 34ZM26.7071 15.7071C27.0976 15.3166 27.0976 14.6834 26.7071 14.2929C26.3166 13.9024 25.6834 13.9024 25.2929 14.2929L18 21.5858L15.7071 19.2929C15.3166 18.9024 14.6834 18.9024 14.2929 19.2929C13.9024 19.6834 13.9024 20.3166 14.2929 20.7071L17.2929 23.7071C17.6834 24.0976 18.3166 24.0976 18.7071 23.7071L26.7071 15.7071Z" fill="white"/>
</g>
</svg>
